<?xml version="1.0" encoding="UTF-8" standalone="no"?>
<!-- Created with Inkscape (http://www.inkscape.org/) -->

<svg
   width="134mm"
   height="40mm"
   viewBox="0 0 134 40"
   version="1.1"
   id="svg5"
   inkscape:version="1.1.1 (3bf5ae0d25, 2021-09-20)"
   sodipodi:docname="Title_2022_10_2.svg"
   inkscape:export-filename="D:\User\itota\Projects\Quwon\resources\Title_2022_10_2.png"
   inkscape:export-xdpi="194.10149"
   inkscape:export-ydpi="194.10149"
   xmlns:inkscape="http://www.inkscape.org/namespaces/inkscape"
   xmlns:sodipodi="http://sodipodi.sourceforge.net/DTD/sodipodi-0.dtd"
   xmlns="http://www.w3.org/2000/svg"
   xmlns:svg="http://www.w3.org/2000/svg">
  <sodipodi:namedview
     id="namedview7"
     pagecolor="#505050"
     bordercolor="#eeeeee"
     borderopacity="1"
     inkscape:pageshadow="0"
     inkscape:pageopacity="0"
     inkscape:pagecheckerboard="0"
     inkscape:document-units="mm"
     showgrid="false"
     inkscape:zoom="0.97764853"
     inkscape:cx="248.55558"
     inkscape:cy="126.32352"
     inkscape:window-width="1280"
     inkscape:window-height="961"
     inkscape:window-x="-8"
     inkscape:window-y="32"
     inkscape:window-maximized="1"
     inkscape:current-layer="layer1" />
  <defs
     id="defs2" />
  <g
     inkscape:label="Layer 1"
     inkscape:groupmode="layer"
     id="layer1">
    <g
       id="g1909"
       style="fill:#404040;fill-opacity:1"
       transform="matrix(0.33333454,0,0,0.33333454,3.3334684,3.3334684)">
      <path
         id="rect850-2"
         style="fill:#404040;fill-opacity:1;stroke-width:13.6208;stroke-linecap:round;stroke-linejoin:round"
         d="m 100.45117,18.898438 c -45.18111,0 -81.552732,36.371622 -81.552732,81.552732 V 277.5 c 0,45.18111 36.371622,81.55469 81.552732,81.55469 H 277.5 c 45.18111,0 81.55469,-36.37358 81.55469,-81.55469 V 100.45117 c 0,-45.18111 -36.37358,-81.552732 -81.55469,-81.552732 z m 3.69922,18.896484 h 169.65234 c 36.761,0 66.35547,29.594475 66.35547,66.355468 v 169.65234 c 0,36.761 -29.59447,66.35547 -66.35547,66.35547 H 104.15039 c -36.760993,0 -66.355468,-29.59447 -66.355468,-66.35547 V 104.15039 c 0,-36.760993 29.594475,-66.355468 66.355468,-66.355468 z"
         transform="scale(0.26458333)" />
      <path
         id="rect2034"
         style="fill:#404040;fill-opacity:1;stroke-width:8.631;stroke-linecap:round;stroke-linejoin:round"
         d="m 30.000236,27.5 c -5.54,0 -10.000423,4.459906 -10.000423,9.999906 V 57.49972 c 0,5.539999 4.460423,10.000421 10.000423,10.000421 5.539999,0 9.999906,-4.460422 9.999906,-10.000421 V 37.499906 c 0,-5.54 -4.459907,-9.999906 -9.999906,-9.999906 z m 0,5.000212 c 2.77,0 4.999694,2.675633 4.999694,5.999633 V 56.49978 c 0,3.324 -2.229694,6.000149 -4.999694,6.000149 -2.77,0 -5.000212,-2.676149 -5.000212,-6.000149 V 38.499845 c 0,-3.324 2.230212,-5.999633 5.000212,-5.999633 z" />
      <path
         id="rect2034-1"
         style="fill:#404040;fill-opacity:1;stroke-width:8.631;stroke-linecap:round;stroke-linejoin:round"
         d="m 69.999862,27.5 c -5.540002,0 -9.999909,4.459906 -9.999909,9.999906 V 57.49972 c 0,5.539999 4.459907,10.000421 9.999909,10.000421 5.539999,0 9.999906,-4.460422 9.999906,-10.000421 V 37.499906 c 0,-5.54 -4.459907,-9.999906 -9.999906,-9.999906 z m 0,5.000212 c 2.769999,0 5.000209,2.675633 5.000209,5.999633 V 56.49978 c 0,3.324 -2.23021,6.000149 -5.000209,6.000149 -2.770002,0 -4.999696,-2.676149 -4.999696,-6.000149 V 38.499845 c 0,-3.324 2.229694,-5.999633 4.999696,-5.999633 z" />
      <path
         style="fill:#404040;fill-opacity:1;stroke:none;stroke-width:0.264583px;stroke-linecap:butt;stroke-linejoin:miter;stroke-opacity:1"
         d="m 37.500212,62.499976 -5.000212,2.5 10.25,10 7.250223,-5.894719 7.249777,5.894719 10.249931,-10 -4.999696,-2.5 -5.250235,5 -7.25,-5 -7.25,5 z"
         id="path5785"
         sodipodi:nodetypes="ccccccccccc" />
    </g>
    <path
       id="path2714"
       style="fill:#404040;fill-opacity:1;stroke-width:5.92275;stroke-linecap:round;stroke-linejoin:round"
       d="m 50.000048,10 a 10,10 0 0 0 -9.999906,9.999906 10,10 0 0 0 9.999906,9.999906 h 9.999905 V 26.999996 H 57.105557 A 10,10 0 0 0 59.999953,19.999906 10,10 0 0 0 50.000048,10 Z m 0,2.999817 a 6.9999999,6.9999999 0 0 1 7.000089,7.000089 6.9999999,6.9999999 0 0 1 -7.000089,7.00009 6.9999999,6.9999999 0 0 1 -7.00009,-7.00009 6.9999999,6.9999999 0 0 1 7.00009,-7.000089 z" />
    <path
       id="path2714-7-5"
       style="fill:#404040;fill-opacity:1;stroke-width:4.14592;stroke-linecap:round;stroke-linejoin:round"
       d="m 61.999833,14.999695 v 8.000028 a 6.9999999,6.9999999 0 0 0 7.000089,7.000089 6.9999999,6.9999999 0 0 0 7.000089,-7.000089 v -8.000028 h -2.999817 v 8.000028 a 3.9999999,3.9999999 0 0 1 -4.000272,4.000273 3.9999999,3.9999999 0 0 1 -3.999756,-4.000273 h -5.16e-4 v -8.000028 z" />
    <path
       id="path2714-7-5-0"
       style="fill:#404040;fill-opacity:1;stroke-width:4.14592;stroke-linecap:round;stroke-linejoin:round"
       d="M 129.00018,28.999906 V 20.999877 A 6.9999999,6.9999999 0 0 0 122.00009,13.999788 6.9999999,6.9999999 0 0 0 115,20.999877 v 8.000029 h 2.99981 v -8.000029 a 3.9999999,3.9999999 0 0 1 4.00028,-4.000272 3.9999999,3.9999999 0 0 1 3.99975,4.000272 h 5.3e-4 v 8.000029 z" />
    <path
       style="fill:#404040;fill-opacity:1;stroke:none;stroke-width:0.264583px;stroke-linecap:butt;stroke-linejoin:miter;stroke-opacity:1"
       d="m 78,14.999695 2.999989,15.000093 h 4 l 1.5,-7 1.5,7 h 4 L 94.999898,14.999695 H 92.00008 l -2.000091,10.000093 -2,-10.000093 h -3 l -2,10.000093 -2.000184,-10.000093 z"
       id="path5605"
       sodipodi:nodetypes="cccccccccccccc" />
    <path
       id="path7698"
       style="fill:#404040;fill-opacity:1;stroke:none;stroke-width:4.42894;stroke-linecap:round;stroke-linejoin:round"
       d="M 104.50026,13.5 A 8.4999998,8.4999998 0 0 0 96,21.999739 8.4999998,8.4999998 0 0 0 104.50026,30.499996 8.4999998,8.4999998 0 0 0 113,21.999739 8.4999998,8.4999998 0 0 0 104.50026,13.5 Z m 0,2.999817 a 5.5,5.5 0 0 1 5.49992,5.499922 5.5,5.5 0 0 1 -5.49992,5.50044 5.5,5.5 0 0 1 -5.499922,-5.50044 5.5,5.5 0 0 1 5.499922,-5.499922 z" />
  </g>
</svg>
